<?xml version="1.0" encoding="UTF-8" standalone="no"?>
<!--
SPDX-License-Identifier: GPL-3.0-or-later
SPDX-FileCopyrightText: 2024 gelatinbomb
-->
<!-- Created using Krita: https://krita.org -->

<svg
   width="104.20423pt"
   height="102.7566pt"
   viewBox="0 0 104.20423 102.7566"
   version="1.1"
   id="svg10"
   xmlns="http://www.w3.org/2000/svg"
   xmlns:svg="http://www.w3.org/2000/svg">
  <defs
     id="defs10">
    <linearGradient
       id="gradient0"
       gradientUnits="userSpaceOnUse"
       x1="0"
       y1="0"
       x2="58.412086"
       y2="58.412086"
       spreadMethod="pad"
       gradientTransform="matrix(1.5220994,0,0,0.65698732,5.1024441,56.988488)">
      <stop
         stop-color="#eabc7d"
         offset="0"
         stop-opacity="1"
         id="stop1" />
      <stop
         stop-color="#8a6043"
         offset="0.983333349227905"
         stop-opacity="1"
         id="stop2" />
    </linearGradient>
    <linearGradient
       id="gradient1"
       gradientUnits="userSpaceOnUse"
       x1="-0.84243125"
       y1="-0.83757567"
       x2="94.232346"
       y2="94.237198"
       spreadMethod="pad"
       gradientTransform="matrix(0.99711395,0,0,1.0028944,3.4163341,3.0683176)">
      <stop
         stop-color="#f8fcfa"
         offset="0.00555555569007993"
         stop-opacity="1"
         id="stop3" />
      <stop
         stop-color="#758f98"
         offset="1"
         stop-opacity="1"
         id="stop4" />
    </linearGradient>
    <linearGradient
       id="gradient2"
       gradientUnits="userSpaceOnUse"
       x1="-0.59329426"
       y1="-0.60670269"
       x2="22.892483"
       y2="22.879074"
       spreadMethod="pad"
       gradientTransform="matrix(1.0112352,0,0,0.98888962,73.228454,51.514908)">
      <stop
         stop-color="#ffffff"
         offset="0.0111111113801599"
         stop-opacity="1"
         id="stop5" />
      <stop
         stop-color="#758f98"
         offset="1"
         stop-opacity="1"
         id="stop6" />
    </linearGradient>
    <linearGradient
       id="gradient3"
       gradientUnits="userSpaceOnUse"
       x1="-1.1656475"
       y1="-1.2353649"
       x2="36.969551"
       y2="36.899834"
       spreadMethod="pad"
       gradientTransform="matrix(1.0294707,0,0,0.97137291,66.145164,66.913108)">
      <stop
         stop-color="#eabc7d"
         offset="0"
         stop-opacity="1"
         id="stop7" />
      <stop
         stop-color="#8a6043"
         offset="0.983333349227905"
         stop-opacity="1"
         id="stop8" />
    </linearGradient>
    <linearGradient
       id="gradient4"
       gradientUnits="userSpaceOnUse"
       x1="-0.57655001"
       y1="-0.62440383"
       x2="33.616901"
       y2="33.56905"
       spreadMethod="pad"
       gradientTransform="matrix(1.040673,0,0,0.96091665,68.024879,67.737883)">
      <stop
         stop-color="#f8fcfa"
         offset="0.00555555569007993"
         stop-opacity="1"
         id="stop9" />
      <stop
         stop-color="#758f98"
         offset="1"
         stop-opacity="1"
         id="stop10" />
    </linearGradient>
  </defs>
  <ellipse
     id="shape0"
     rx="48.465881"
     ry="48.592422"
     cx="49.665874"
     cy="49.792423"
     fill="#d1e1e9"
     fill-rule="evenodd"
     stroke="#6e899b"
     stroke-width="2.4"
     stroke-linecap="square"
     stroke-linejoin="bevel" />
  <ellipse
     id="shape01"
     rx="46.296566"
     ry="46.417446"
     cx="49.700169"
     cy="49.849365"
     fill="#d1e1e9"
     fill-rule="evenodd"
     stroke="#a8b4b7"
     stroke-width="2.4"
     stroke-linecap="square"
     stroke-linejoin="bevel" />
  <path
     id="shape1"
     fill="url(#gradient0)"
     fill-rule="evenodd"
     stroke-opacity="0"
     stroke="#000000"
     stroke-width="0"
     stroke-linecap="square"
     stroke-linejoin="bevel"
     d="m 5.1024441,56.988488 0.024,0.173 0.191,1.135 0.219,1.124 0.246,1.114 0.273,1.104 0.3,1.093 0.327,1.082 0.353,1.07 0.378,1.058 0.404,1.046 0.429,1.033 0.453,1.02 0.478,1.006 0.501,0.993 0.5249999,0.979 0.548,0.963 0.571,0.949 0.593,0.934 0.615,0.918 0.637,0.902 0.658,0.885 0.679,0.868 0.699,0.852 0.72,0.834 0.739,0.815 0.759,0.798 0.778,0.779 0.796,0.76 0.815,0.74 0.832,0.721 0.85,0.7 0.868,0.68 0.884,0.659 0.9,0.637 0.917,0.616 0.932,0.594 0.947,0.572 0.963,0.549 0.977,0.526 0.991,0.502 1.005,0.478 1.019,0.454 1.031,0.429 1.045,0.405 1.056,0.379 1.069,0.353 1.08,0.327 1.091,0.301 1.103,0.274 1.112,0.246 1.123,0.219 1.133,0.191 1.142,0.162 1.151,0.134 1.159,0.105 1.168,0.075 1.176,0.046 1.183,0.015 1.183,-0.015 1.176,-0.046 1.167,-0.075 1.16,-0.105 1.151,-0.134 1.142,-0.162 1.132,-0.191 1.123,-0.219 1.113,-0.246 1.102,-0.274 1.092,-0.301 1.08,-0.327 1.068,-0.353 1.057,-0.379 1.044,-0.405 1.032,-0.429 1.018,-0.454 1.005,-0.478 0.992,-0.502 0.977,-0.526 0.962,-0.549 0.948,-0.572 0.932,-0.594 0.917,-0.616 0.9,-0.637 0.884,-0.659 0.867,-0.68 0.85,-0.7 0.833,-0.721 0.815,-0.74 0.796,-0.76 0.778,-0.779 0.759,-0.798 0.739,-0.815 0.719,-0.834 0.7,-0.852 0.679,-0.868 0.658,-0.885 0.637,-0.902 0.615,-0.918 0.593,-0.934 0.571,-0.949 0.548,-0.963 0.525,-0.979 0.501,-0.993 0.478,-1.006 0.453,-1.02 0.429,-1.033 0.403,-1.046 0.379,-1.058 0.353,-1.07 0.326,-1.082 0.3,-1.093 0.274,-1.104 0.246,-1.114 0.113,-0.581 -0.125,0.175 -0.245,0.302 -0.271,0.298 -0.299,0.296 -0.324,0.292 -0.351,0.29 -0.376,0.286 -0.401,0.283 -0.426,0.279 -0.45,0.276 -0.475,0.273 -0.498,0.268 -0.521,0.265 -0.545,0.26 -0.567,0.257 -0.589,0.253 -0.611,0.248 -0.632,0.244 -0.654,0.239 -0.675,0.235 -0.694,0.23 -0.715,0.226 -0.735,0.221 -0.753,0.215 -0.773,0.211 -0.791,0.205 -0.809,0.201 -0.828,0.195 -0.844,0.189 -0.862,0.184 -0.878,0.178 -0.894,0.173 -0.911,0.166 -0.926,0.161 -0.941,0.155 -0.957,0.148 -0.97,0.142 -0.985,0.136 -0.998,0.129 -1.012,0.123 -1.025,0.116 -1.037,0.11 -1.05,0.102 -1.062,0.096 -1.073,0.088 -1.084,0.082 -1.095,0.074 -1.105,0.066 -1.116,0.059 -1.125,0.052 -1.134,0.044 -1.144,0.036 -1.152,0.029 -1.16,0.02 -1.168,0.012 -1.175,0.004 -1.175,-0.004 -1.168,-0.012 -1.16,-0.02 -1.152,-0.029 -1.144,-0.036 -1.134,-0.044 -1.125,-0.052 -1.116,-0.059 -1.105,-0.066 -1.095,-0.074 -1.084,-0.082 -1.073,-0.088 -1.062,-0.096 -1.05,-0.102 -1.037,-0.11 -1.025,-0.116 -1.012,-0.123 -0.998,-0.129 -0.985,-0.136 -0.97,-0.142 -0.957,-0.148 -0.941,-0.155 -0.926,-0.161 -0.911,-0.166 -0.894,-0.173 -0.878,-0.178 -0.862,-0.184 -0.844,-0.189 -0.828,-0.195 -0.809,-0.201 -0.791,-0.205 -0.773,-0.211 -0.753,-0.215 -0.735,-0.221 -0.715,-0.226 -0.694,-0.23 -0.675,-0.235 -0.654,-0.239 -0.632,-0.244 -0.611,-0.248 -0.589,-0.253 -0.567,-0.257 -0.545,-0.26 -0.521,-0.265 -0.4989999,-0.268 -0.474,-0.273 -0.45,-0.276 -0.426,-0.279 -0.401,-0.283 -0.376,-0.286 -0.351,-0.29 -0.324,-0.292 -0.299,-0.296 -0.271,-0.298 -0.245,-0.302 -0.217,-0.304 -0.189,-0.307 -0.162,-0.309 -0.132,-0.312 -0.104,-0.314 -0.075,-0.316 -0.023,-0.164 h -0.1"
     style="fill:url(#gradient0)" />
  <ellipse
     id="ellipse10"
     rx="46.560192"
     ry="46.83498"
     cx="49.976524"
     cy="49.903297"
     fill="none"
     stroke="url(#gradient1)"
     stroke-width="1.68"
     stroke-linecap="square"
     stroke-linejoin="bevel"
     style="stroke:url(#gradient1)" />
  <ellipse
     id="shape2"
     rx="43.908226"
     ry="12.565266"
     cx="49.847691"
     cy="56.371353"
     fill="#c98656"
     fill-rule="evenodd"
     stroke="#f4dcb3"
     stroke-width="1.44"
     stroke-linecap="square"
     stroke-linejoin="bevel" />
  <path
     id="shape3"
     fill="#78482d"
     fill-rule="evenodd"
     stroke-opacity="0"
     stroke="#000000"
     stroke-width="0"
     stroke-linecap="square"
     stroke-linejoin="bevel"
     d="m 26.451234,55.832838 22.5765,-11.2201 c 18.2305,8.20103 31.2523,14.0589 39.0654,17.5736 -14.7534,5.7765 -32.9467,5.7697 -41.1495,6.9147 -4.8567,-2.9068 -11.68751,-7.3295 -20.4924,-13.2682 z" />
  <path
     id="shape4"
     fill="none"
     stroke="#8e7879"
     stroke-width="2.64"
     stroke-linecap="round"
     stroke-linejoin="round"
     d="m 91.794654,56.090238 -0.1112,1.1277 -0.1366,-1.42517 -0.0695,-0.27089 -0.0966,-0.26897 -0.1234,-0.26697 -0.1499,-0.26489 -0.1761,-0.26272 -0.2019,-0.26045 -0.2274,-0.25812 -0.2524,-0.25568 -0.2773,-0.25316 -0.3017,-0.25057 -0.3257,-0.24787 -0.3496,-0.2451 -0.3729,-0.24224 -0.396,-0.23929 -0.4186,-0.23625 -0.4411,-0.23314 -0.4631,-0.22993 -0.4848,-0.22663 -0.5061,-0.22326 -0.5272,-0.2198 -0.5478,-0.21624 -0.5681,-0.21261 -0.588,-0.20888 -0.6077,-0.20507 -0.627,-0.20118 -0.646,-0.19719 -0.6645,-0.19313 -0.6828,-0.18897 -0.7007,-0.18474 -0.7182,-0.1804 -0.7355,-0.17599 -0.7524,-0.1715 -0.7689,-0.16691 -0.7852,-0.16223 -0.8009,-0.15748 -0.8165,-0.15264 -0.8316,-0.1477 -0.8465,-0.14269 -0.861,-0.13759 -0.8751,-0.1324 -0.8888,-0.12712 -0.9024,-0.12177 -0.9154,-0.11631 -0.9282,-0.110784 -0.9407,-0.105162 -0.9527,-0.09946 -0.9644,-0.09366 -0.9758,-0.08779 -0.9869,-0.08182 -0.9976,-0.07577 -1.008,-0.06964 -1.0179,-0.06341 -1.0277,-0.0571 -1.037,-0.05071 -1.046,-0.04423 -1.0546,-0.03766 -1.0629,-0.03101 -1.0709,-0.02427 -1.0785,-0.01744 -1.0858,-0.01053 -1.0927,-0.0035 -1.0927,0.0035 -1.0858,0.01053 -1.0785,0.01744 -1.0709,0.02427 -1.0629,0.03101 -1.0546,0.03766 -1.046,0.04423 -1.037,0.05071 -1.0276,0.0571 -1.018,0.06341 -1.008,0.06964 -0.9976,0.07577 -0.9868,0.08182 -0.9759,0.08779 -0.9644,0.09366 -0.9527,0.09946 -0.9407,0.105162 -0.9282,0.110784 -0.9154,0.11631 -0.9024,0.12177 -0.8888,0.12712 -0.8751,0.1324 -0.861,0.13759 -0.8464,0.14269 -0.8317,0.1477 -0.8165,0.15264 -0.8009,0.15748 -0.7852,0.16223 -0.7689,0.16691 -0.7523,0.1715 -0.7355,0.17599 -0.7183,0.1804 -0.7007,0.18474 -0.6828,0.18897 -0.6645,0.19313 -0.64596,0.19719 -0.62699,0.20118 -0.6077,0.20507 -0.58808,0.20888 -0.5681,0.21261 -0.54779,0.21624 -0.52714,0.2198 -0.50613,0.22326 -0.48479,0.22663 -0.46309,0.22993 -0.44107,0.23314 -0.4187,0.23625 -0.39598,0.23929 -0.37292,0.24224 -0.34951,0.2451 -0.32577,0.24787 -0.3016799,0.25057 -0.27725,0.25316 -0.25247,0.25568 -0.22735,0.25812 -0.20189,0.26045 -0.176085,0.26272 -0.149936,0.26489 -0.123445,0.26697 -0.09661,0.26897 -0.069432,0.27089 -0.041911,0.27267 -0.334164,0.1173 -0.126057,0.4612 1.03997,1.6871 -0.856888,-1.4124 0.708675,-0.5267 0.258413,-0.2557 0.28378,-0.2531 0.30878,-0.25058 0.33344,-0.24787 0.3577399,-0.2451 0.3817,-0.24224 0.4053,-0.23929 0.42855,-0.23626 0.45145,-0.23313 0.47401,-0.22993 0.4962,-0.22664 0.51804,-0.22326 0.53954,-0.21979 0.56069,-0.21624 0.58148,-0.21261 0.60192,-0.20888 0.62201,-0.20507 0.64175,-0.20118 0.66114,-0.1972 0.68021,-0.19312 0.6988,-0.18898 0.7172,-0.18473 0.7352,-0.1804 0.7528,-0.176 0.7701,-0.17149 0.787,-0.16691 0.8036,-0.16224 0.8198,-0.15748 0.8357,-0.15263 0.8513,-0.14771 0.8664,-0.14269 0.8812,-0.13758 0.8957,-0.1324 0.9098,-0.12713 0.9236,-0.12176 0.937,-0.11631 0.95,-0.11079 0.9628,-0.10516 0.9751,-0.09946 0.9872,-0.09366 0.9988,-0.08779 1.0101,-0.08182 1.0211,-0.07577 1.0317,-0.06964 1.0419,-0.06341 1.0519,-0.0571 1.0614,-0.05071 1.0706,-0.04423 1.0794,-0.03766 1.088,-0.031 1.0961,-0.02427 1.1039,-0.01744 1.1113,-0.01053 1.1184,-0.0035 1.1185,0.0035 1.1113,0.01053 1.1039,0.01744 1.0961,0.02427 1.088,0.031 1.0794,0.03766 1.0706,0.04423 1.0614,0.05071 1.0519,0.0571 1.0419,0.06341 1.0317,0.06964 1.0211,0.07577 1.0101,0.08182 0.9988,0.08779 0.9871,0.09366 0.9752,0.09946 0.9627,0.10516 0.9501,0.11079 0.937,0.11631 0.9236,0.12176 0.9098,0.12713 0.8957,0.1324 0.8812,0.13758 0.8664,0.14269 0.8512,0.14771 0.8357,0.15263 0.8198,0.15748 0.8036,0.16224 0.7871,0.16691 0.7701,0.17149 0.7528,0.176 0.7351,0.1804 0.7172,0.18473 0.6989,0.18898 0.6802,0.19312 0.6611,0.1972 0.6418,0.20118 0.622,0.20507 0.6019,0.20888 0.5815,0.21261 0.5607,0.21624 0.5395,0.21979 0.5181,0.22326 0.4962,0.22664 0.474,0.22993 0.4514,0.23313 0.4286,0.23626 0.4053,0.23929 0.3817,0.24224 0.3577,0.2451 0.3334,0.24787 0.3088,0.25058 0.2838,0.2531 0.0983,0.0973" />
  <path
     id="shape02"
     fill="#e3e5df"
     fill-rule="evenodd"
     stroke-opacity="0"
     stroke="#000000"
     stroke-width="0"
     stroke-linecap="square"
     stroke-linejoin="bevel"
     d="m 30.004084,41.166088 19.2,9.6 0.0767,17.1724 -19.2767,-12.3724 z" />
  <path
     id="shape03"
     fill="#67707f"
     fill-rule="evenodd"
     stroke-opacity="0"
     stroke="#000000"
     stroke-width="0"
     stroke-linecap="square"
     stroke-linejoin="bevel"
     d="m 73.173504,38.203878 -21.9041,-10.62826 -11.6959,-3.41654 19.2,7.38925 z" />
  <ellipse
     id="shape04"
     rx="43.908226"
     ry="12.565266"
     cx="49.162701"
     cy="56.214752"
     fill="none"
     stroke="#f4dcb3"
     stroke-width="1.44"
     stroke-linecap="square"
     stroke-linejoin="bevel" />
  <path
     id="shape5"
     fill="#99abb7"
     fill-rule="evenodd"
     stroke-opacity="0"
     stroke="#000000"
     stroke-width="0"
     stroke-linecap="square"
     stroke-linejoin="bevel"
     d="m 49.160074,50.603348 19.2,-9.6 v 14.4 l -19.2,12.3648 z" />
  <path
     id="shape6"
     fill="#99abb7"
     fill-rule="evenodd"
     stroke-opacity="0"
     stroke="#000000"
     stroke-width="0"
     stroke-linecap="square"
     stroke-linejoin="bevel"
     d="m 58.742924,31.749438 14.4,6.47714 -4.8,3.12286 -19.2,9.6 -4.8,2.9301 z" />
  <path
     id="shape7"
     fill="#485474"
     fill-rule="evenodd"
     stroke-opacity="0"
     stroke="#000000"
     stroke-width="0"
     stroke-linecap="square"
     stroke-linejoin="bevel"
     d="m 48.310834,50.180488 0.89324,0.585605 -4.50357,3.011215 z" />
  <path
     id="shape8"
     fill="#2a3b51"
     fill-rule="evenodd"
     stroke-opacity="0"
     stroke="#000000"
     stroke-width="0"
     stroke-linecap="square"
     stroke-linejoin="bevel"
     d="m 73.204084,38.103338 v 1.66955 l -4.813816,3.02574 -0.01851,-1.78054 z" />
  <path
     id="shape9"
     fill="#fafbff"
     fill-rule="evenodd"
     stroke-opacity="0"
     stroke="#000000"
     stroke-width="0"
     stroke-linecap="square"
     stroke-linejoin="bevel"
     d="m 49.204074,52.414528 0.03139,15.279 -0.54627,0.4851 -1.975648,-1.0229 -0.07642,-13.18985 z" />
  <path
     id="shape05"
     fill="#fafbff"
     fill-rule="evenodd"
     stroke-opacity="0"
     stroke="#000000"
     stroke-width="0"
     stroke-linecap="square"
     stroke-linejoin="bevel"
     d="m 31.993024,48.749618 -0.06018,7.80969 -0.54627,0.4851 -1.97565,-1.0229 0.02416,-8.60712 z" />
  <path
     id="shape10"
     fill="#06d9f9"
     fill-rule="evenodd"
     stroke="#3a6076"
     stroke-width="0.72"
     stroke-linecap="square"
     stroke-linejoin="bevel"
     d="m 51.557364,51.452338 6.13721,-3.7081 0.17084,9.54638 -5.9357,3.81242 z" />
  <path
     id="shape06"
     fill="#223248"
     fill-rule="evenodd"
     stroke-opacity="0"
     stroke="#000000"
     stroke-width="0"
     stroke-linecap="square"
     stroke-linejoin="bevel"
     d="m 61.924764,48.922068 4.29101,-1.9786 0.10061,9.94269 -4.064638,2.52511 z" />
  <path
     id="shape11"
     fill="#485474"
     fill-rule="evenodd"
     stroke-opacity="0"
     stroke="#000000"
     stroke-width="0"
     stroke-linecap="square"
     stroke-linejoin="bevel"
     d="m 69.374294,40.529468 -1.11607,-0.4242 2.30516,-1.51152 1.31127,0.371387 z" />
  <path
     id="shape12"
     fill="#485474"
     fill-rule="evenodd"
     stroke-opacity="0"
     stroke="#000000"
     stroke-width="0"
     stroke-linecap="square"
     stroke-linejoin="bevel"
     d="m 68.308874,40.067638 0.09985,15.4429 1.308666,0.4437 -0.24929,-15.542963 z" />
  <path
     id="shape13"
     fill="#2a3b51"
     fill-rule="evenodd"
     stroke-opacity="0"
     stroke="#000000"
     stroke-width="0"
     stroke-linecap="square"
     stroke-linejoin="bevel"
     d="m 70.438804,41.328488 0.1962,13.834 -1.001197,0.6924 -0.223233,-13.824479 z" />
  <path
     id="shape07"
     fill="#2a3b51"
     fill-rule="evenodd"
     stroke-opacity="0"
     stroke="#000000"
     stroke-width="0"
     stroke-linecap="square"
     stroke-linejoin="bevel"
     d="m 49.213954,50.577718 0.05959,1.69129 -4.800687,3.07631 -0.03946,-1.73098 z" />
  <path
     id="shape08"
     fill="#685157"
     fill-rule="evenodd"
     stroke-opacity="0"
     stroke="#000000"
     stroke-width="0"
     stroke-linecap="square"
     stroke-linejoin="bevel"
     d="m 44.461534,53.737238 -0.0043,1.44917 -18.888042,-9.77688 -0.280458,-1.44962 z" />
  <path
     id="shape14"
     fill="#998389"
     fill-rule="evenodd"
     stroke-opacity="0"
     stroke="#000000"
     stroke-width="0"
     stroke-linecap="square"
     stroke-linejoin="bevel"
     d="m 58.763314,31.548328 -19.2,-7.7357 -14.4,20.2483 19.2,9.8541 z" />
  <path
     id="shape09"
     fill="#bc908e"
     fill-rule="evenodd"
     stroke-opacity="0"
     stroke="#000000"
     stroke-width="0"
     stroke-linecap="square"
     stroke-linejoin="bevel"
     d="m 58.899214,31.627468 -0.9635,1.45591 -19.2113,-7.8392 0.884445,-1.30863 z" />
  <path
     id="shape010"
     fill="#2a3b51"
     fill-rule="evenodd"
     stroke-opacity="0"
     stroke="#000000"
     stroke-width="0"
     stroke-linecap="square"
     stroke-linejoin="bevel"
     d="m 49.232894,52.073288 0.21481,15.4385 -1.007721,0.7183 -0.235319,-15.454879 z" />
  <path
     id="shape011"
     fill="#ad8e7e"
     fill-rule="evenodd"
     stroke-opacity="0"
     stroke="#000000"
     stroke-width="0"
     stroke-linecap="square"
     stroke-linejoin="bevel"
     d="m 31.774847,48.542632 0.162737,8.095056 -1.003522,0.44331 -0.05063,-8.97852 z" />
  <path
     id="shape16"
     fill="#2a3b51"
     fill-rule="evenodd"
     stroke-opacity="0"
     stroke="#000000"
     stroke-width="0"
     stroke-linecap="square"
     stroke-linejoin="bevel"
     d="m 73.204084,38.433018 -1.0719,0.82668 -12.8924,-6.26784 -12.33494,19.33335 -2.50076,1.3929 14.4968,-22.2768 z" />
  <path
     id="shape18"
     fill="#faf8f7"
     fill-rule="evenodd"
     stroke-opacity="0"
     stroke="#000000"
     stroke-width="0"
     stroke-linecap="square"
     stroke-linejoin="bevel"
     d="m 46.447699,5.9678063 -0.414032,0.066056 -1.181486,0.2172303 -1.172161,0.244298 -1.162277,0.2710973 -1.152125,0.2975595 -1.141412,0.3237413 -1.130137,0.3496527 -1.118499,0.3752467 -1.106399,0.4005613 -1.093734,0.425576 -1.080708,0.4502928 -1.067218,0.4747207 -1.053165,0.4988481 -1.03875,0.522688 -0.566788,0.302361 4.864336,6.578136 0.755518,-0.426621 1.023779,-0.546277 1.038748,-0.522679 1.05317,-0.498878 1.067204,-0.474642 1.080715,-0.450332 1.093832,-0.425557 1.106397,-0.400552 1.118501,-0.375256 1.130137,-0.349653 1.141412,-0.323741 1.152027,-0.297578 0.445105,-0.103821 -2.59199,-6.6024786 m -22.614479,9.8978416 -0.03112,0.02413 -0.887627,0.724028 -0.868508,0.744953 -0.848902,0.76546 -0.828857,0.785848 -0.808326,0.805819 -0.787346,0.825569 -0.765888,0.845003 -0.743963,0.864118 -0.721579,0.883016 -0.69872,0.901493 -0.6754,0.919753 -0.651624,0.937795 -0.62736,0.955419 -0.60263,0.972725 -0.577468,0.989909 -0.551803,1.006679 -0.52568,1.02313 -0.499081,1.039263 -0.47205,1.055274 -0.106463,0.256465 5.26178,7.979918 0.06051,-0.171737 0.41654,-1.086147 0.444525,-1.070871 0.472053,-1.055273 0.499076,-1.039264 0.525686,-1.023128 0.551802,-1.00668 0.577468,-0.989909 0.60263,-0.972725 0.62736,-0.955419 0.651653,-0.937789 0.67541,-0.919752 0.69872,-0.901493 0.721579,-0.883015 0.743953,-0.864121 0.765879,-0.845005 0.787335,-0.825571 0.808326,-0.805818 0.828867,-0.785846 0.848922,-0.765457 0.868449,-0.744964 0.193814,-0.158085 -5.351942,-6.497695" />
  <path
     id="shape19"
     fill="#f5ede1"
     fill-rule="evenodd"
     stroke-opacity="0"
     stroke="#000000"
     stroke-width="0"
     stroke-linecap="square"
     stroke-linejoin="bevel"
     d="m 5.8817318,60.991254 0.1841433,1.399264 0.329447,1.08573 0.355754,1.07409 0.381688,1.06205 0.40724,1.04966 0.43243,1.03689 0.45723,1.02374 0.48167,1.01022 0.50572,0.9963 0.52941,0.9821 0.5527099,0.9674 0.57566,0.9524 0.59821,0.937 0.62039,0.9213 0.6422,0.9051 0.66364,0.8886 0.6847,0.8718 0.70539,0.8545 0.72569,0.8368 0.74562,0.8189 0.7652,0.8004 0.7844,0.7818 0.8032,0.7626 0.8216,0.7431 0.8397,0.7233 0.8574,0.703 0.8747,0.6823 0.8916,0.6614 0.9082,0.6401 0.9244,0.6183 0.9402,0.5962 0.9556,0.5737 0.9707,0.5508 0.9854,0.5276 0.9997,0.5041 1.0136,0.48 1.0272,0.4557 1.0404,0.431 1.0533,0.4058 1.0656,0.3804 1.0777,0.3546 1.0894,0.3283 1.1008,0.3018 1.1116,0.2747 1.1223,0.2475 1.1324,0.2197 1.1423,0.1916 1.1517,0.1632 1.1607,0.1344 1.1695,0.1051 1.1778,0.0756 1.1857,0.0456 1.1933,0.0153 1.1932,-0.0153 1.1858,-0.0456 1.1777,-0.0756 1.1695,-0.1051 1.1608,-0.1344 1.1516,-0.1632 0.5998,-0.1006 -0.2537,0.0228 -1.1778,0.0756 -1.1857,0.0456 -1.1933,0.0153 -1.1933,-0.0153 -1.1857,-0.0456 -1.1778,-0.0756 -1.1694,-0.1051 -1.1608,-0.1344 -1.1517,-0.1631 -1.1422,-0.1917 -1.1325,-0.2197 -1.1222,-0.2475 -1.1117,-0.2747 -1.1007,-0.3018 -1.0894,-0.3283 -1.0778,-0.3546 -1.0656,-0.3804 -1.0532,-0.4058 -1.0404,-0.431 -1.0272,-0.4557 -1.0137,-0.48 -0.9997,-0.504 -0.9854,-0.5277 -0.9707,-0.5508 -0.9556,-0.5737 -0.9402,-0.5962 -0.9244,-0.6183 -0.9082,-0.64 -0.8916,-0.6614 -0.8747,-0.6824 -0.8574,-0.703 -0.8397,-0.7233 -0.8216,-0.7431 -0.8032,-0.7626 -0.7844,-0.7817 -0.7652,-0.8005 -0.7456,-0.8189 -0.7257,-0.8368 -0.7054,-0.8545 -0.6847,-0.8718 -0.6636,-0.8886 -0.6422,-0.9051 -0.6204,-0.9213 -0.59821,-0.937 -0.57565,-0.9524 -0.55272,-0.9674 -0.52941,-0.98207 -0.50572,-0.99632 -0.48167,-1.01022 -0.45723,-1.02374 -0.43243,-1.03689 -0.40724,-1.04966 -0.38168,-1.06205 0.02145,-0.36481 -4.7368899,-3.05004" />
  <path
     id="shape20"
     fill="#b0b9c0"
     fill-rule="evenodd"
     stroke="#113853"
     stroke-width="2.4"
     stroke-linecap="square"
     stroke-linejoin="bevel"
     d="m 96.543374,64.810928 -0.005,-0.387 -0.012,-0.384 -0.02,-0.382 -0.028,-0.379 -0.036,-0.376 -0.043,-0.373 -0.052,-0.371 -0.058,-0.367 -0.066,-0.363 -0.074,-0.361 -0.08,-0.356 -0.088,-0.353 -0.095,-0.35 -0.102,-0.345 -0.108,-0.341 -0.115,-0.338 -0.122,-0.332 -0.128,-0.329 -0.135,-0.324 -0.141,-0.319 -0.147,-0.315 -0.153,-0.31 -0.159,-0.304 -0.165,-0.3 -0.171,-0.294 -0.177,-0.289 -0.182,-0.284 -0.188,-0.278 -0.193,-0.272 -0.199,-0.266 -0.204,-0.26 -0.208,-0.255 -0.214,-0.248 -0.219,-0.241 -0.224,-0.235 -0.228,-0.229 -0.233,-0.222 -0.237,-0.215 -0.242,-0.208 -0.246,-0.201 -0.25,-0.194 -0.255,-0.187 -0.258,-0.179 -0.262,-0.171 -0.267,-0.164 -0.269,-0.156 -0.274,-0.149 -0.277,-0.14 -0.28,-0.132 -0.284,-0.123 -0.287,-0.116 -0.29,-0.106 -0.293,-0.099 -0.296,-0.089 -0.299,-0.08 -0.301,-0.072 -0.304,-0.062 -0.307,-0.053 -0.309,-0.044 -0.311,-0.034 -0.314,-0.025 -0.315,-0.015 -0.318,-0.004 -0.318,0.004 -0.315,0.015 -0.314,0.025 -0.311,0.034 -0.309,0.044 -0.307,0.053 -0.304,0.062 -0.302,0.072 -0.298,0.08 -0.296,0.089 -0.293,0.099 -0.29,0.106 -0.287,0.116 -0.284,0.123 -0.28,0.132 -0.277,0.14 -0.274,0.149 -0.27,0.156 -0.266,0.164 -0.262,0.171 -0.259,0.179 -0.254,0.187 -0.25,0.194 -0.246,0.201 -0.242,0.208 -0.238,0.215 -0.233,0.222 -0.228,0.229 -0.223,0.235 -0.219,0.241 -0.214,0.248 -0.209,0.255 -0.203,0.26 -0.199,0.266 -0.193,0.272 -0.188,0.278 -0.182,0.284 -0.177,0.289 -0.171,0.294 -0.165,0.3 -0.159,0.304 -0.154,0.31 -0.147,0.315 -0.141,0.319 -0.134,0.324 -0.129,0.329 -0.121,0.332 -0.115,0.338 -0.109,0.341 -0.101,0.345 -0.095,0.35 -0.088,0.353 -0.08,0.356 -0.074,0.361 -0.066,0.363 -0.059,0.367 -0.051,0.371 -0.043,0.373 -0.036,0.376 -0.028,0.379 -0.021,0.382 -0.012,0.384 -0.004,0.387 0.004,0.387 0.012,0.384 0.021,0.382 0.028,0.379 0.036,0.376 0.043,0.373 0.051,0.37 0.059,0.367 0.066,0.364 0.074,0.36 0.08,0.357 0.088,0.353 0.095,0.349 0.101,0.346 0.109,0.341 0.115,0.337 0.121,0.333 0.129,0.329 0.134,0.324 0.141,0.319 0.147,0.315 0.154,0.309 0.159,0.305 0.165,0.3 0.171,0.294 0.177,0.289 0.182,0.283 0.188,0.278 0.193,0.272 0.199,0.267 0.203,0.26 0.209,0.254 0.214,0.248 0.219,0.242 0.223,0.235 0.228,0.229 0.195,0.185 v -9.259 l -0.016,-0.073 -0.061,-0.346 -0.05,-0.35 -0.04,-0.355 -0.028,-0.359 -0.017,-0.363 -0.006,-0.366 0.006,-0.367 0.017,-0.362 0.028,-0.359 0.04,-0.355 0.05,-0.351 0.061,-0.346 0.072,-0.341 0.081,-0.336 0.092,-0.33 0.101,-0.325 0.111,-0.319 0.12,-0.313 0.129,-0.306 0.138,-0.3 0.147,-0.292 0.156,-0.286 0.163,-0.278 0.172,-0.27 0.179,-0.263 0.187,-0.254 0.195,-0.245 0.202,-0.237 0.208,-0.228 0.216,-0.218 0.222,-0.209 0.228,-0.199 0.235,-0.189 0.24,-0.179 0.246,-0.168 0.252,-0.158 0.257,-0.146 0.262,-0.135 0.267,-0.123 0.271,-0.112 0.276,-0.099 0.28,-0.087 0.285,-0.074 0.288,-0.061 0.291,-0.048 0.295,-0.035 0.298,-0.021 0.301,-0.007 0.301,0.007 0.298,0.021 0.295,0.035 0.291,0.048 0.288,0.061 0.284,0.074 0.281,0.087 0.276,0.099 0.271,0.112 0.267,0.123 0.262,0.135 0.257,0.146 0.251,0.158 0.247,0.168 0.24,0.179 0.235,0.189 0.228,0.199 0.222,0.209 0.216,0.218 0.208,0.228 0.202,0.237 0.194,0.245 0.188,0.254 0.179,0.263 0.172,0.27 0.163,0.278 0.156,0.286 0.146,0.292 0.139,0.3 0.129,0.306 0.12,0.313 0.111,0.319 0.101,0.325 0.092,0.33 0.081,0.336 0.072,0.341 0.061,0.346 0.05,0.351 0.039,0.355 0.029,0.359 0.017,0.362 0.006,0.367 -0.006,0.366 -0.017,0.363 -0.029,0.359 -0.039,0.355 -0.05,0.35 -0.059,0.332 v 9.208 l 0.05,-0.047 0.228,-0.229 0.224,-0.235 0.219,-0.242 0.214,-0.248 0.208,-0.254 0.204,-0.26 0.199,-0.267 0.193,-0.272 0.188,-0.278 0.182,-0.283 0.177,-0.289 0.171,-0.294 0.165,-0.3 0.159,-0.305 0.153,-0.309 0.147,-0.315 0.141,-0.319 0.135,-0.324 0.128,-0.329 0.122,-0.333 0.115,-0.337 0.108,-0.341 0.102,-0.346 0.095,-0.349 0.088,-0.353 0.08,-0.357 0.074,-0.36 0.066,-0.364 0.058,-0.367 0.052,-0.37 0.043,-0.373 0.036,-0.376 0.028,-0.379 0.02,-0.382 0.012,-0.384 0.005,-0.387" />
  <path
     id="shape012"
     fill="none"
     stroke="url(#gradient2)"
     stroke-width="1.2"
     stroke-linecap="square"
     stroke-linejoin="bevel"
     d="m 95.769454,63.799508 -0.0047,-0.3223 -0.0111,-0.3198 -0.0186,-0.3182 -0.0261,-0.3156 -0.0335,-0.3132 -0.04,-0.3106 -0.0483,-0.309 -0.054,-0.30567 -0.0614,-0.30233 -0.0688,-0.30066 -0.0744,-0.2965 -0.0819,-0.29399 -0.0883,-0.2915 -0.0949,-0.28734 -0.1004,-0.284 -0.107,-0.28151 -0.1135,-0.27651 -0.119,-0.27401 -0.1256,-0.26984 -0.1312,-0.26568 -0.1367,-0.26235 -0.1423,-0.25819 -0.1479,-0.25318 -0.1535,-0.24986 -0.159,-0.24486 -0.1647,-0.2407 -0.1692,-0.23653 -0.1749,-0.23153 -0.1795,-0.22654 -0.1851,-0.22154 -0.1898,-0.21654 -0.1934,-0.21238 -0.1991,-0.20655 -0.2037,-0.20071 -0.2083,-0.19572 -0.2121,-0.19073 -0.2167,-0.18489 -0.2205,-0.17907 -0.2251,-0.17323 -0.2288,-0.1674 -0.2325,-0.16158 -0.2372,-0.15574 -0.24,-0.14908 -0.2437,-0.14242 -0.2483,-0.13659 -0.2502,-0.12993 -0.2549,-0.124091 -0.2576,-0.116599 -0.2605,-0.109937 -0.2641,-0.102441 -0.267,-0.09661 -0.2697,-0.08828 -0.2726,-0.08245 -0.2753,-0.07412 -0.2781,-0.06663 -0.28,-0.05997 -0.2827,-0.05164 -0.2856,-0.04414 -0.2874,-0.03665 -0.2893,-0.02832 -0.292,-0.02082 -0.293,-0.01249 -0.2958,-0.0033 -0.2958,0.0033 -0.293,0.01249 -0.292,0.02082 -0.2893,0.02832 -0.28744,0.03665 -0.28555,0.04414 -0.28276,0.05164 -0.2809,0.05997 -0.27718,0.06663 -0.27533,0.07412 -0.27253,0.08245 -0.26974,0.08828 -0.26695,0.09661 -0.26416,0.102441 -0.26043,0.109937 -0.25765,0.116599 -0.25486,0.124091 -0.25114,0.12993 -0.24741,0.13659 -0.2437,0.14242 -0.24091,0.14908 -0.23625,0.15574 -0.23254,0.16158 -0.22881,0.1674 -0.22509,0.17323 -0.22138,0.17907 -0.21672,0.18489 -0.21207,0.19073 -0.20742,0.19572 -0.2037,0.20071 -0.19905,0.20655 -0.1944,0.21238 -0.18882,0.21654 -0.1851,0.22154 -0.17951,0.22654 -0.17487,0.23153 -0.16929,0.23653 -0.16463,0.2407 -0.15905,0.24486 -0.15348,0.24986 -0.14789,0.25318 -0.14324,0.25819 -0.13673,0.26235 -0.13115,0.26568 -0.12464,0.26984 -0.11999,0.27401 -0.112544,0.27651 -0.106966,0.28151 -0.101385,0.284 -0.09394,0.28734 -0.08836,0.2915 -0.08185,0.29399 -0.07441,0.2965 -0.06883,0.30066 -0.06139,0.30233 -0.05488,0.30567 -0.04744,0.309 -0.04,0.3106 -0.03349,0.3132 -0.02604,0.3156 -0.01953,0.3182 -0.01116,0.3198 -0.0037,0.3223 0.0037,0.3223 0.01116,0.3198 0.01953,0.3182 0.02604,0.3157 0.03349,0.3131 0.04,0.3107 0.04744,0.3081 0.05488,0.3057 0.06139,0.3031 0.06883,0.2999 0.07441,0.2973 0.08185,0.294 0.08836,0.2907 0.09394,0.2881 0.101385,0.284 0.106966,0.2807 0.112544,0.2773 0.11999,0.2741 0.12464,0.2698 0.13115,0.2657 0.13673,0.2623 0.14324,0.2574 0.14789,0.254 0.15348,0.2499 0.15905,0.2448 0.16463,0.2407 0.16929,0.2357 0.17487,0.2315 0.17951,0.2266 0.1851,0.2224 0.18882,0.2165 0.1944,0.2115 0.19905,0.2066 0.2037,0.2015 0.20742,0.1958 0.21207,0.1907 0.18138,0.1541 13.87025,-0.115 0.0465,-0.0391 0.2121,-0.1907 0.2083,-0.1958 0.2037,-0.2015 0.1991,-0.2066 0.1934,-0.2115 0.1898,-0.2165 0.1851,-0.2224 0.1795,-0.2266 0.1749,-0.2315 0.1692,-0.2357 0.1647,-0.2407 0.159,-0.2448 0.1535,-0.2499 0.1479,-0.254 0.1423,-0.2574 0.1367,-0.2623 0.1312,-0.2657 0.1256,-0.2698 0.119,-0.2741 0.1135,-0.2773 0.107,-0.2807 0.1004,-0.284 0.0949,-0.2881 0.0883,-0.2907 0.0819,-0.294 0.0744,-0.2973 0.0688,-0.2999 0.0614,-0.3031 0.054,-0.3057 0.0483,-0.3081 0.04,-0.3107 0.0335,-0.3131 0.0261,-0.3157 0.0186,-0.3182 0.0111,-0.3198 0.0047,-0.3223"
     style="stroke:url(#gradient2)" />
  <rect
     id="shape21"
     fill="url(#gradient3)"
     fill-rule="evenodd"
     stroke="#113853"
     stroke-width="2.4"
     stroke-linecap="square"
     stroke-linejoin="round"
     width="36.85907"
     height="34.643497"
     rx="7.8038006"
     ry="7.8038006"
     x="66.145164"
     y="66.913109"
     style="fill:url(#gradient3)" />
  <ellipse
     id="shape22"
     rx="5.3557644"
     ry="5.4514027"
     cx="84.40773"
     cy="79.386864"
     fill="#113853"
     fill-rule="evenodd"
     stroke-opacity="0"
     stroke="#000000"
     stroke-width="0"
     stroke-linecap="square"
     stroke-linejoin="bevel" />
  <path
     id="shape23"
     fill="#113853"
     fill-rule="evenodd"
     stroke-opacity="0"
     stroke="#000000"
     stroke-width="0"
     stroke-linecap="square"
     stroke-linejoin="bevel"
     d="m 84.696504,82.012648 7.15418,13.1924 -14.4363,-0.0947 z" />
  <rect
     id="shape013"
     transform="rotate(0.44089491)"
     fill="none"
     stroke="url(#gradient4)"
     stroke-width="1.2"
     stroke-linecap="square"
     stroke-linejoin="round"
     width="34.384201"
     height="31.657057"
     rx="7.2798214"
     ry="7.1310744"
     x="68.024879"
     y="67.737885"
     style="stroke:url(#gradient4)" />
</svg>
